<svg width="24" height="25" viewBox="0 0 24 25" fill="none" xmlns="http://www.w3.org/2000/svg">
<rect opacity="0.01" y="0.799988" width="24" height="24" fill="white"/>
<path fill-rule="evenodd" clip-rule="evenodd" d="M3.04999 12.8368C3.04999 9.22737 3.66141 7.05949 4.96045 5.76044C6.2595 4.4614 8.42738 3.84998 12.0368 3.84998C15.6463 3.84998 17.8142 4.4614 19.1132 5.76044C20.4123 7.05949 21.0237 9.22737 21.0237 12.8368C21.0237 16.4463 20.4123 18.6142 19.1132 19.9132C17.8142 21.2123 15.6463 21.8237 12.0368 21.8237C8.42738 21.8237 6.2595 21.2123 4.96045 19.9132C3.66141 18.6142 3.04999 16.4463 3.04999 12.8368ZM12.0368 2.34998C8.34418 2.34998 5.64364 2.95593 3.89979 4.69978C2.15594 6.44363 1.54999 9.14417 1.54999 12.8368C1.54999 16.5295 2.15594 19.23 3.89979 20.9739C5.64364 22.7177 8.34418 23.3237 12.0368 23.3237C15.7295 23.3237 18.43 22.7177 20.1739 20.9739C21.9177 19.23 22.5237 16.5295 22.5237 12.8368C22.5237 9.14417 21.9177 6.44363 20.1739 4.69978C18.43 2.95593 15.7295 2.34998 12.0368 2.34998ZM8.45886 12.0868C8.04465 12.0868 7.70886 12.4226 7.70886 12.8368C7.70886 13.251 8.04465 13.5868 8.45886 13.5868H15.6147C16.0289 13.5868 16.3647 13.251 16.3647 12.8368C16.3647 12.4226 16.0289 12.0868 15.6147 12.0868H8.45886Z" fill="#181818"/>
</svg>
